<?xml version="1.0" encoding="utf-8"?>
<!-- Generator: Adobe Illustrator 16.0.0, SVG Export Plug-In . SVG Version: 6.00 Build 0)  -->
<!DOCTYPE svg PUBLIC "-//W3C//DTD SVG 1.1//EN" "http://www.w3.org/Graphics/SVG/1.1/DTD/svg11.dtd">
<svg version="1.1" id="Layer_1" xmlns="http://www.w3.org/2000/svg" xmlns:xlink="http://www.w3.org/1999/xlink" x="0px" y="0px"
	 width="350px" height="560px" viewBox="0 0 350 560" enable-background="new 0 0 350 560" xml:space="preserve">
<path opacity="0.2" fill="#FFFFFF" d="M39.741,92.897c19.254-25.209,45.089-39.787,84.12-39.787
	c71.506,0,123.194,49.004,123.194,131.955c0,93.636-54.438,139.237-122.084,139.237c-40.14,0-62.682-10.184-86.883-39.281v32.5H-40
	V-45.77L39.741,92.897z M102.973,266.582c33.546,0,60.498-23.273,60.498-73.746c0-54.823-22-78.101-63.253-78.101
	c-42.334,0-63.229,28.612-63.229,77.617C36.988,237.974,61.73,266.582,102.973,266.582z"/>
</svg>
